{
	"asset":{
		"generator":"Khronos glTF Blender I/O v3.5.30",
		"version":"2.0"
	},
	"scene":0,
	"scenes":[
		{
			"name":"Scene",
			"nodes":[
				0
			]
		}
	],
	"nodes":[
		{
			"mesh":0,
			"name":"Text",
			"rotation":[
				0.7071068286895752,
				0,
				0,
				0.7071068286895752
			]
		}
	],
	"materials":[
		{
			"doubleSided":true,
			"name":"uu",
			"pbrMetallicRoughness":{
				"baseColorFactor":[
					0.800000011920929,
					0.800000011920929,
					0.800000011920929,
					1
				],
				"metallicFactor":0.875,
				"roughnessFactor":0.5
			}
		}
	],
	"meshes":[
		{
			"name":"Text",
			"primitives":[
				{
					"attributes":{
						"POSITION":0,
						"TEXCOORD_0":1,
						"NORMAL":2
					},
					"indices":3,
					"material":0
				}
			]
		}
	],
	"accessors":[
		{
			"bufferView":0,
			"componentType":5126,
			"count":7393,
			"max":[
				2.558391809463501,
				0.04999999701976776,
				0.3190229833126068
			],
			"min":[
				-2.5460002422332764,
				-0.04999999701976776,
				-0.3920000195503235
			],
			"type":"VEC3"
		},
		{
			"bufferView":1,
			"componentType":5126,
			"count":7393,
			"type":"VEC2"
		},
		{
			"bufferView":2,
			"componentType":5126,
			"count":7393,
			"type":"VEC3"
		},
		{
			"bufferView":3,
			"componentType":5123,
			"count":37272,
			"type":"SCALAR"
		}
	],
	"bufferViews":[
		{
			"buffer":0,
			"byteLength":88716,
			"byteOffset":0,
			"target":34962
		},
		{
			"buffer":0,
			"byteLength":59144,
			"byteOffset":88716,
			"target":34962
		},
		{
			"buffer":0,
			"byteLength":88716,
			"byteOffset":147860,
			"target":34962
		},
		{
			"buffer":0,
			"byteLength":74544,
			"byteOffset":236576,
			"target":34963
		}
	],
	"buffers":[
		{
			"byteLength":311120,
			"uri":"data:application/octet-stream;base64,"
		}
	]
}
