<svg id="mysvg" stroke-linecap="square" fill-opacity="0" viewBox="0 0 688 107" fill="" xmlns="http://www.w3.org/2000/svg" style="">
  <path d="M69.864 3.632V14.288H42.504V104H29.4V14.288H1.896V3.632H69.864Z" stroke="white" stroke-width="3" class="ZOxveiqe_0"></path>
  <path d="M130.49 3.632V67.136C130.49 76.064 132.65 82.688 136.97 87.008C141.386 91.328 147.482 93.488 155.258 93.488C162.938 93.488 168.938 91.328 173.258 87.008C177.674 82.688 179.882 76.064 179.882 67.136V3.632H192.986V66.992C192.986 75.344 191.306 82.4 187.946 88.16C184.586 93.824 180.026 98.048 174.266 100.832C168.602 103.616 162.218 105.008 155.114 105.008C148.01 105.008 141.578 103.616 135.818 100.832C130.154 98.048 125.642 93.824 122.282 88.16C119.018 82.4 117.386 75.344 117.386 66.992V3.632H130.49Z" stroke="white" stroke-width="3" class="ZOxveiqe_1"></path>
  <path d="M308.302 3.632V14.288H280.942V104H267.838V14.288H240.334V3.632H308.302Z" stroke="white" stroke-width="3" class="ZOxveiqe_2"></path>
  <path d="M401.616 105.008C392.304 105.008 383.808 102.848 376.128 98.528C368.448 94.112 362.352 88.016 357.84 80.24C353.424 72.368 351.216 63.536 351.216 53.744C351.216 43.952 353.424 35.168 357.84 27.392C362.352 19.52 368.448 13.424 376.128 9.104C383.808 4.688 392.304 2.48 401.616 2.48C411.024 2.48 419.568 4.688 427.248 9.104C434.928 13.424 440.976 19.472 445.392 27.248C449.808 35.024 452.016 43.856 452.016 53.744C452.016 63.632 449.808 72.464 445.392 80.24C440.976 88.016 434.928 94.112 427.248 98.528C419.568 102.848 411.024 105.008 401.616 105.008ZM401.616 93.632C408.624 93.632 414.912 92 420.48 88.736C426.144 85.472 430.56 80.816 433.728 74.768C436.992 68.72 438.624 61.712 438.624 53.744C438.624 45.68 436.992 38.672 433.728 32.72C430.56 26.672 426.192 22.016 420.624 18.752C415.056 15.488 408.72 13.856 401.616 13.856C394.512 13.856 388.176 15.488 382.608 18.752C377.04 22.016 372.624 26.672 369.36 32.72C366.192 38.672 364.608 45.68 364.608 53.744C364.608 61.712 366.192 68.72 369.36 74.768C372.624 80.816 377.04 85.472 382.608 88.736C388.272 92 394.608 93.632 401.616 93.632Z" stroke="white" stroke-width="3" class="ZOxveiqe_3"></path>
  <path d="M553.844 104L529.94 62.96H514.099V104H500.996V3.632H533.396C540.98 3.632 547.363 4.928 552.547 7.52C557.827 10.112 561.764 13.616 564.356 18.032C566.948 22.448 568.244 27.488 568.244 33.152C568.244 40.064 566.227 46.16 562.195 51.44C558.259 56.72 552.307 60.224 544.339 61.952L569.539 104H553.844ZM514.099 52.448H533.396C540.5 52.448 545.828 50.72 549.38 47.264C552.932 43.712 554.708 39.008 554.708 33.152C554.708 27.2 552.932 22.592 549.38 19.328C545.924 16.064 540.596 14.432 533.396 14.432H514.099V52.448Z" stroke="white" stroke-width="3" class="ZOxveiqe_4"></path>
  <path d="M652.109 105.008C645.485 105.008 639.533 103.856 634.253 101.552C629.069 99.152 624.989 95.888 622.013 91.76C619.037 87.536 617.501 82.688 617.405 77.216H631.373C631.853 81.92 633.773 85.904 637.133 89.168C640.589 92.336 645.581 93.92 652.109 93.92C658.349 93.92 663.245 92.384 666.797 89.312C670.445 86.144 672.269 82.112 672.269 77.216C672.269 73.376 671.213 70.256 669.101 67.856C666.989 65.456 664.349 63.632 661.181 62.384C658.013 61.136 653.741 59.792 648.365 58.352C641.741 56.624 636.413 54.896 632.381 53.168C628.445 51.44 625.037 48.752 622.157 45.104C619.373 41.36 617.981 36.368 617.981 30.128C617.981 24.656 619.373 19.808 622.157 15.584C624.941 11.36 628.829 8.09599 633.821 5.792C638.909 3.488 644.717 2.336 651.245 2.336C660.653 2.336 668.333 4.688 674.285 9.392C680.333 14.096 683.741 20.336 684.509 28.112H670.109C669.629 24.272 667.613 20.912 664.061 18.032C660.509 15.056 655.805 13.568 649.949 13.568C644.477 13.568 640.013 15.008 636.557 17.888C633.101 20.672 631.373 24.608 631.373 29.696C631.373 33.344 632.381 36.32 634.397 38.624C636.509 40.928 639.053 42.704 642.029 43.952C645.101 45.104 649.373 46.448 654.845 47.984C661.469 49.808 666.797 51.632 670.829 53.456C674.861 55.184 678.317 57.92 681.197 61.664C684.077 65.312 685.517 70.304 685.517 76.64C685.517 81.536 684.221 86.144 681.629 90.464C679.037 94.784 675.197 98.288 670.109 100.976C665.021 103.664 659.021 105.008 652.109 105.008Z" stroke="white" stroke-width="3" class="ZOxveiqe_5"></path>
<style data-made-with="vivus-instant">.ZOxveiqe_0{stroke-dasharray:337 339;stroke-dashoffset:338;animation:ZOxveiqe_draw 2000ms linear 0ms forwards;}.ZOxveiqe_1{stroke-dasharray:484 486;stroke-dashoffset:485;animation:ZOxveiqe_draw 2000ms linear 200ms forwards;}.ZOxveiqe_2{stroke-dasharray:337 339;stroke-dashoffset:338;animation:ZOxveiqe_draw 2000ms linear 400ms forwards;}.ZOxveiqe_3{stroke-dasharray:566 568;stroke-dashoffset:567;animation:ZOxveiqe_draw 2000ms linear 600ms forwards;}.ZOxveiqe_4{stroke-dasharray:550 552;stroke-dashoffset:551;animation:ZOxveiqe_draw 2000ms linear 800ms forwards;}.ZOxveiqe_5{stroke-dasharray:494 496;stroke-dashoffset:495;animation:ZOxveiqe_draw 2000ms linear 1000ms forwards;}@keyframes ZOxveiqe_draw{100%{stroke-dashoffset:0;}}@keyframes ZOxveiqe_fade{0%{stroke-opacity:1;}94.44444444444444%{stroke-opacity:1;}100%{stroke-opacity:0;}}</style></svg>
