
<svg class="aaa" version="1.1" xmlns="http://www.w3.org/2000/svg" xmlns:xlink="http://www.w3.org/1999/xlink" x="0px" y="0px" viewBox="0 0 1000 1000" xml:space="preserve">
<metadata> Svg Vector Icons : http://www.onlinewebfonts.com/icon </metadata>
<g><path fill="#fff" d="M96.1,853.6c-3.8,0-7.6-1.1-10.9-3.2l-66.1-42.6c-5.2-3.3-8.5-8.9-9.1-15c-0.6-6.1,1.7-12.2,6.2-16.5c0.6-0.6,62.9-60.6,81.5-156.4c-12-11.1-29.8-31.8-28.2-56.8c0.8-12.1,6.4-28.8,27.7-43.5c0.3-26.8,4.1-87.7,31.8-122L36.2,353c-7.3-3.5-11.7-11-11.3-19.1c0.4-8.1,5.6-15.1,13.2-17.9l460.3-168.4c4.4-1.7,9.4-1.6,13.9,0l464.6,170.5c7.9,2.9,13.1,10.4,13.2,18.8c0,8.4-5.2,15.9-13.1,18.9L512.3,528.9c-4.5,1.7-9.5,1.7-14,0l-229.1-85.7c-7.8-2.9-12.9-10.3-13.1-18.5c-0.1-8.3,4.9-15.8,12.6-18.9l238.8-96.4c0.2-1.6,0.3-3,0.3-4.2L231.4,415.3c-2,0.9-49.7,21.8-51.3,106.3c6.9,6.8,15.2,18.2,17.4,34c2.3,17.1-3.2,34.4-16.3,51.6c5.8,42,22.1,208.8-78.3,245.3C100.8,853.2,98.4,853.6,96.1,853.6z"/><path fill="#fff" d="M507.3,729.1c-90.8,0-214.3-15.3-286.9-88.1c-7-7-7.8-18.1-2-26.1c4.7-6.5,16.1-27.4,12.6-45.5c-2-10.2-8.5-18.6-19.9-25.8c-5.8-3.7-9.4-10.1-9.4-17v-63.9c0-6.5,3.1-12.5,8.4-16.3c5.3-3.8,12-4.8,18.1-2.8l287.7,95.9l283.4-95.9c6.1-2,12.9-1.1,18.2,2.7c5.3,3.8,8.4,9.9,8.4,16.3v149.1c0,1.3-0.1,2.7-0.4,3.9c-2.2,11.1-22.4,68.2-203.2,105.2C619.4,721.6,571.7,729.1,507.3,729.1z"/></g>
</svg>