<svg version="1.2" xmlns="http://www.w3.org/2000/svg" viewBox="0 0 820 828" width="820" height="828">
	<title>pp</title>
	<path id="Color Fill 2" class="s0" d="m386.5 0.7c-2.2 0.2-8.5 0.8-14 1.4-5.5 0.6-15.2 1.9-21.5 3-6.3 1.1-18.3 3.8-26.5 5.9-8.3 2.1-20.2 5.6-26.5 7.8-6.3 2.1-16.7 6-23 8.6-6.3 2.6-18.7 8.4-27.5 13-8.8 4.5-21.8 11.8-29 16.3-7.2 4.5-19.3 12.8-27 18.5-7.7 5.7-19.2 14.9-25.5 20.4-6.3 5.4-17.3 15.7-24.4 22.9-7.1 7.1-17.2 18-22.4 24-5.2 6-14 17.1-19.6 24.5-5.6 7.4-12.5 16.9-15.3 21-2.7 4.1-9.1 14.3-14 22.5-5 8.3-12.9 22.6-17.6 32-4.7 9.4-11.3 23.5-14.7 31.5-3.4 8-9.3 23.7-13 35-3.8 11.3-8.6 27.7-10.8 36.5-2.2 8.8-5.2 22.5-6.6 30.5-1.4 8-3.2 19.7-4 26-0.8 6.3-2 19.8-2.7 30-0.7 11-0.9 25.4-0.5 35.5 0.4 9.4 1.2 21.5 1.7 27 0.5 5.5 1.7 14.7 2.5 20.5 0.8 5.8 2.6 16.1 4 23 1.4 6.9 4.1 17.7 5.9 24 1.8 6.3 5 16 7 21.5 2.1 5.5 6.5 15.9 9.8 23 3.3 7.1 8.9 18.2 12.5 24.5 3.5 6.3 9.4 16 13 21.5 3.7 5.5 10.2 14.7 14.6 20.5 4.3 5.8 11.8 15 16.6 20.5 4.8 5.5 14.8 15.8 22.1 23 7.4 7.2 18.1 16.9 23.9 21.6 5.8 4.7 15.9 12.5 22.5 17.2 6.6 4.8 18.8 12.7 27 17.6 8.2 4.9 20.4 11.6 27 14.9 6.6 3.3 17.4 8.2 24 11 6.6 2.8 18.1 7.1 25.5 9.7 7.4 2.5 19.6 6.2 27 8.1 7.4 1.9 19.3 4.6 26.5 5.9 7.2 1.3 18 2.9 24 3.7 6.8 0.8 21.6 1.3 38.5 1.3 21.2 0 30.5-0.4 40.5-1.8 7.2-1 18.2-2.9 24.5-4.3 6.3-1.3 16.7-3.9 23-5.7 6.3-1.9 14.9-4.6 19-6.1 4.1-1.5 13.8-6 21.5-10 7.7-4 20.1-10.8 27.5-15.1 7.4-4.2 17.5-10.2 22.5-13.3 5-3.1 15.5-9.9 23.5-15.2 8-5.3 20.3-13.8 27.5-19 7.2-5.2 18.8-14.2 26-19.9 7.2-5.7 18.2-15 24.5-20.5 6.3-5.6 16.8-15.3 23.4-21.6 6.5-6.3 16.9-16.9 23-23.5 6.1-6.7 15.4-17.2 20.7-23.5 5.3-6.3 13.3-16.5 17.8-22.5 4.6-6 11.2-15.8 14.7-21.8 3.5-5.9 9.7-17.3 13.8-25.4 4-8.2 9.9-20.9 13.1-28.3 3.1-7.4 8.5-22 12-32.5 3.5-10.5 8.2-26.4 10.4-35.5 2.2-9.1 5.2-22.8 6.6-30.5 1.4-7.7 3.4-20.8 4.5-29 1-8.3 2.4-22.9 3.1-32.5 0.7-10.9 0.9-28.1 0.6-45.5-0.3-15.4-1.3-34.5-2.2-42.5-0.9-8-2.5-20.6-3.6-28-1.1-7.4-3.4-19.8-5-27.5-1.6-7.7-4.1-19-5.7-25-2.2-8.9-3.8-12.7-8.2-19.8-3-4.8-8.2-12.5-11.5-17.1-3.3-4.7-10-13.3-15-19.2-5-6-14-15.8-20-21.9-6.1-6-15.1-14.4-20-18.6-5-4.2-13.5-11-19-15.1-5.5-4.1-14.5-10.4-20-14-5.5-3.6-15-9.3-21-12.8-6-3.5-18.2-9.8-27-14.1-8.8-4.2-22.3-10.2-30-13.2-7.7-3-19-7.2-25-9.2-6-2-16.6-5.2-23.5-7.1-6.9-2-18.3-4.9-25.5-6.5-7.2-1.6-19.3-4-27-5.4-7.7-1.3-20.1-3.1-27.5-3.9-7.4-0.9-19.3-2.1-26.5-2.6-7.2-0.6-24.9-0.9-39.5-0.8-14.6 0.1-28.3 0.3-30.5 0.5zm-9 40.9c-7.2 0.8-19.8 2.8-28 4.5-8.3 1.7-20.2 4.7-26.5 6.6-6.3 1.9-15.8 5-21 7-5.2 1.9-14.5 5.8-20.5 8.6-6 2.8-15.5 7.5-21 10.5-5.5 3-14.4 8.2-19.8 11.6-5.4 3.3-15.8 10.5-23 16-7.3 5.4-17.5 13.5-22.7 18.1-5.2 4.6-16.3 15.2-24.5 23.6-8.3 8.5-19.8 21.3-25.5 28.5-5.8 7.2-13.9 18-18.2 24-4.2 6-10.7 15.9-14.5 21.9-3.8 6-9.4 15.5-12.5 21-3.1 5.5-7.6 14-10.1 19-2.4 5-7 14.9-10.2 22-3.2 7.1-7.9 18.9-10.5 26-2.6 7.1-6.6 18.9-8.9 26-2.2 7.1-5.6 19.3-7.5 27-2 7.7-4.6 20.1-6 27.5-1.3 7.4-3.1 19.1-4 26-0.9 6.9-2.1 18.8-2.7 26.5-0.7 8-0.9 21-0.6 30.5 0.3 9.1 1.3 21.7 2.2 28 0.9 6.3 2.7 16.7 4.2 23 1.4 6.3 4.1 16.7 6 23 1.9 6.3 5.7 17.1 8.4 24 2.8 6.9 8.3 18.8 12.3 26.5 4 7.7 10.1 18.7 13.7 24.3 3.5 5.7 10.2 15.4 14.8 21.5 4.6 6.2 11.5 15 15.5 19.6 3.9 4.7 12.3 13.7 18.6 20 6.4 6.4 15.6 15 20.5 19.2 5 4.2 13.5 11 19 15.1 5.5 4.2 16.1 11.5 23.5 16.3 7.4 4.7 22.5 13.1 33.5 18.5 11 5.4 25.4 11.8 32 14.3 6.6 2.4 17.6 6.1 24.5 8 6.9 2 16.5 4.5 21.5 5.6 5 1.1 15.5 3 23.5 4.2 12.2 1.9 18.8 2.3 41 2.3 16.8 0.1 29.8-0.4 35.5-1.2 5-0.7 14.6-2.4 21.5-3.8 6.9-1.4 17.2-3.8 23-5.5 7.6-2.2 15.8-5.8 29.5-12.8 10.5-5.4 24.4-13 31-16.8 6.6-3.8 17-10 23-13.7 6-3.8 18-11.6 26.5-17.4 8.5-5.8 21.6-15.1 29-20.8 7.4-5.6 19.3-15.1 26.5-21.1 7.1-5.9 18.4-15.8 25-21.9 6.6-6.1 17.4-16.7 23.9-23.5 6.6-6.8 15.8-16.9 20.5-22.4 4.8-5.5 12.1-14.7 16.3-20.5 4.2-5.8 11.3-16.6 15.8-24 4.5-7.4 11.7-20.7 16-29.5 4.3-8.8 10.3-22.5 13.3-30.5 3-8 6.9-19 8.6-24.5 1.6-5.5 4.6-16.3 6.5-24 1.9-7.7 4.2-17.6 5-22 0.9-4.4 2.2-12.3 3.1-17.5 0.8-5.2 2.2-15.8 3-23.5 0.9-7.7 2-23.9 2.5-36 0.7-14.6 0.7-29.4 0-44-0.6-12.1-2-30.1-3.1-40-1.1-9.9-3.3-25.8-5-35.3-1.6-9.4-3.6-18.7-4.5-20.5-0.9-1.7-3.9-7-6.7-11.7-2.8-4.7-8.3-13-12.1-18.4-3.9-5.5-11.9-15.4-17.7-22-5.8-6.7-15-16.1-20.5-21-5.4-4.9-13.9-12-18.9-15.9-5-3.8-13.5-10-19-13.7-5.5-3.7-14.5-9.3-20-12.5-5.5-3.1-14.3-7.9-19.5-10.5-5.2-2.6-14.5-6.9-20.5-9.5-6-2.6-16.8-6.9-24-9.5-7.2-2.6-20.9-7-30.5-9.8-9.6-2.7-25.2-6.6-34.5-8.5-9.3-2-23.3-4.5-31-5.6-7.7-1.1-21-2.8-29.5-3.6-8.5-0.9-28.1-1.8-43.5-2-20.7-0.3-31.4 0-41 1.1z"/>
</svg>