{
  "accessors": [
    {
      "bufferView": 1,
      "componentType": 5126,
      "count": 32463,
      "max": [
        469.3858947753906,
        464.6444091796875,
        464.6416015625
      ],
      "min": [
        -464.6444091796875,
        -469.4153137207031,
        -464.5954895019531
      ],
      "type": "VEC3"
    },
    {
      "bufferView": 1,
      "byteOffset": 389556,
      "componentType": 5126,
      "count": 32463,
      "max": [
        1.0,
        1.0,
        1.0
      ],
      "min": [
        -1.0,
        -1.0,
        -1.0
      ],
      "type": "VEC3"
    },
    {
      "bufferView": 0,
      "componentType": 5125,
      "count": 115032,
      "type": "SCALAR"
    }
  ],
  "asset": {
    "extras": {
      "author": "Tahsin R. Pulok (https://sketchfab.com/tahsinpulok)",
      "license": "CC-BY-NC-ND-4.0 (http://creativecommons.org/licenses/by-nc-nd/4.0/)",
      "source": "https://sketchfab.com/3d-models/abstract-globe-0385866f6301416ca26e9d21801f517b",
      "title": "Abstract Globe"
    },
    "generator": "Sketchfab-13.68.0",
    "version": "2.0"
  },
  "bufferViews": [
    {
      "buffer": 0,
      "byteLength": 460128,
      "name": "floatBufferViews",
      "target": 34963
    },
    {
      "buffer": 0,
      "byteLength": 779112,
      "byteOffset": 460128,
      "byteStride": 12,
      "name": "floatBufferViews",
      "target": 34962
    }
  ],
  "buffers": [
    {
      "byteLength": 1239240,
      "uri": "scene.bin"
    }
  ],
  "materials": [
    {
      "emissiveFactor": [
        0.2889944817264226,
        0.2889944817264226,
        0.2889944817264226
      ],
      "name": "material",
      "pbrMetallicRoughness": {
        "metallicFactor": 0.0,
        "roughnessFactor": 0.6981498269075157
      }
    }
  ],
  "meshes": [
    {
      "name": "Material2",
      "primitives": [
        {
          "attributes": {
            "NORMAL": 1,
            "POSITION": 0
          },
          "indices": 2,
          "material": 0,
          "mode": 4
        }
      ]
    }
  ],
  "nodes": [
    {
      "children": [
        1
      ],
      "matrix": [
        0.016362592577934265,
        0.0,
        0.0,
        0.0,
        0.0,
        3.6332254045166635e-18,
        -0.016362592577934265,
        0.0,
        0.0,
        0.016362592577934265,
        3.6332254045166635e-18,
        0.0,
        0.0,
        0.0,
        0.0,
        1.0
      ],
      "name": "Sketchfab_model"
    },
    {
      "children": [
        2,
        3
      ],
      "name": "Collada visual scene group"
    },
    {
      "mesh": 0,
      "name": "Material2"
    },
    {
      "children": [
        4
      ],
      "name": "SketchUp"
    },
    {
      "children": [
        5
      ],
      "matrix": [
        0.9720899,
        -0.2346085,
        -5.551115e-17,
        0.0,
        0.1304857,
        0.5406618,
        0.8310586,
        0.0,
        -0.1949734,
        -0.8078637,
        0.5561849,
        0.0,
        -290.7289,
        -1298.606,
        881.154,
        1.0
      ],
      "name": "skp_camera_Last_Saved_SketchUp_View"
    },
    {
      "name": "ID1"
    }
  ],
  "scene": 0,
  "scenes": [
    {
      "name": "Sketchfab_Scene",
      "nodes": [
        0
      ]
    }
  ]
}
